# xmcd
#
# Track frame offsets: 
#        150
#        18024
#        30151
#        47664
#        61927
#        82328
#        102063
#        120777
#        137165
#        154853
#        175171
#        197821
#        218246
#        230620
#        248059
#        264167
#        291549
#
# Disc length: 4149 seconds
#
# Revision: 0
# Processed by: cddbd v1.5.2PL0 Copyright (c) Steve Scherf et al.
# Submitted via: ExactAudioCopy v1.2
#
DISCID=e1103311
DTITLE=Willie Buck - Willie Buck Way
DYEAR=2019
DGENRE=Blues
TTITLE0=You Want Me to Trust You
TTITLE1=(All I'm Doin' is) Thinking of You
TTITLE2=Bottom of the Hill
TTITLE3=I Got You (and You Got Me)
TTITLE4=Can't Say Something Good About Me (feat. Billy Flynn)
TTITLE5=There's a Woman
TTITLE6=My Mind Might Freeze Up
TTITLE7=Crawlin' King Snake
TTITLE8=Crawlin' King Snake
TTITLE9=Heck of a Time (feat. Thaddeus Krolicki and Billy Flynn)
TTITLE10=The Men Ought to Learn (To Treat the Women Right) (feat. Thad
TTITLE10=deus Krolicki)
TTITLE11=Please Have Mercy
TTITLE12=How Deep is the Ocean
TTITLE13=Willie Buck Way
TTITLE14=Twenty-Four Seven
TTITLE15=Blues Before Sunrise (feat. Billy Flynn)
TTITLE16=I'd Rather Leave You (feat. Billy Flynn)
EXTD=
EXTT0=
EXTT1=
EXTT2=
EXTT3=
EXTT4=
EXTT5=
EXTT6=
EXTT7=
EXTT8=
EXTT9=
EXTT10=
EXTT11=
EXTT12=
EXTT13=
EXTT14=
EXTT15=
EXTT16=
PLAYORDER=
